<?xml version="1.0" encoding="utf-8"?>
<!-- Generator: Adobe Illustrator 24.1.3, SVG Export Plug-In . SVG Version: 6.00 Build 0)  -->
<svg version="1.1" id="Layer_1" xmlns="http://www.w3.org/2000/svg" xmlns:xlink="http://www.w3.org/1999/xlink" x="0px" y="0px"
	 viewBox="0 0 181.4 181.4" style="enable-background:new 0 0 181.4 181.4;" xml:space="preserve">
<style type="text/css">
	.st0{fill:#E4042C;}
</style>
<path class="st0" d="M181.4,181.4H0V0h181.4V181.4z M126.4,31.1l-12.1,46.1c-4.6-17.6-8.9-33.5-9.6-36.1c-1.8-6.8-6.3-10-13-10
	c-7.2,0-12.4,0-12.4,0c0,0-0.1,0-0.1,0L67.1,77.2L55,31.1l-27.2,3.2c0,0,14.9,56.9,17.7,67.2c1.8,6.6,5.2,11.1,11.9,12.9
	c6.9,1.9,21.1,6.1,21.1,6.1l12.2-46.2c3.7,14,6.5,24.3,7.6,28.4c1.7,6.1,5.6,9.9,12.5,11.9c9.3,2.8,20.1,5.9,20.1,5.9l22.7-86.4
	L126.4,31.1z M104.9,140.5c-4.3,0-6.8,2.2-7.8,5.1c-0.8-3.5-4.1-5.1-7.5-5.1c-4.3,0-7.5,2.5-8.3,6.5v-12h-5.8v21.6h5.8v-5.9
	c0.7,4.2,3.9,6.3,8.1,6.3c3.6,0,6.6-1.8,7.7-5.1c1,2.9,3.6,5.1,7.8,5.1c5.8,0,8.3-3.9,8.3-8.3C113.3,144.3,110.7,140.5,104.9,140.5z
	 M92,150.4c-0.2,1.3-0.9,2.3-2.4,2.3c-1.9,0-2.5-1.4-2.5-4c0-1.9,0.5-4,2.7-4c1.4,0,2.2,0.9,2.2,2.5h4.9c-0.1,0.5-0.1,1-0.1,1.5
	c0,0.6,0,1.1,0.1,1.7L92,150.4L92,150.4z M104.9,152.7c-2.3,0-2.6-2.3-2.6-4s0.3-4,2.6-4s2.6,2.3,2.6,4
	C107.5,150.4,107.2,152.7,104.9,152.7z M146.9,153.2c-1.9,0-2.9-1.3-3.1-3.2h11.3c0-6.1-2.7-9.6-8.6-9.6c-4.1,0-7,2.5-7.9,6v-0.7
	c0-2.5-1.3-5.3-5.2-5.3c-2.3,0-3.7,0.8-4.5,1.6c-0.1,0.1-0.2,0.2-0.2,0.3c-0.3,0.3-0.4,0.5-0.6,0.6c-0.7-1.6-2.5-2.5-4.1-2.5
	c-2.1,0-3.8,0.7-5.1,2.5h-0.1v-2.1h-5.6v7.8v7.9h5.8v-8.5c0-1.7,0.5-2.9,2-2.9c1.9,0,2,1.4,2,2.9v8.5h5.8v-8.5c0-1.7,0.5-2.9,2-2.9
	c1.8,0,2,1.4,2,2.9v8.5h5.8v-5.4c0.9,3.7,4.1,5.8,8.2,5.8c3.6,0,6.7-1.5,7.9-4.9h-5.4C148.9,152.8,147.8,153.2,146.9,153.2z
	 M146.8,144.2c1.7,0,2.8,1.2,2.8,2.8h-5.8C144.1,145.2,145.2,144.2,146.8,144.2z M68.2,145.9c-1.1-3.5-3.6-5.4-8-5.4
	c-3.4,0-6,1.7-7.3,4.3l1.2-3.9h-6l-2.2,9.8h-0.1l-2.1-9.8h-5.4l-2,9.8h-0.1l-2.3-9.8h-6l4.8,15.7h5.9l2.3-9.7H41l2.2,9.7h5.9
	l2.8-9.1c-0.1,0.4-0.1,0.8-0.1,1.3c0,5.2,3.6,8.2,8.5,8.2c3.4,0,6.4-1.4,7.8-4.4v4h5.8V135h-5.8V145.9z M60.4,144.2
	c1.7,0,2.8,1.2,2.8,2.8h-5.8C57.7,145.2,58.8,144.2,60.4,144.2z M63,152.1c-0.5,0.8-1.6,1.1-2.5,1.1c-1.9,0-2.9-1.3-3.1-3.2h10.8
	v2.1H63z"/>
</svg>
